<?xml version="1.0" encoding="UTF-8" standalone="no"?>
<!-- Created with Inkscape (http://www.inkscape.org/) -->

<svg
   xmlns:dc="http://purl.org/dc/elements/1.1/"
   xmlns:cc="http://creativecommons.org/ns#"
   xmlns:rdf="http://www.w3.org/1999/02/22-rdf-syntax-ns#"
   xmlns:svg="http://www.w3.org/2000/svg"
   xmlns="http://www.w3.org/2000/svg"
   xmlns:xlink="http://www.w3.org/1999/xlink"
   xmlns:sodipodi="http://sodipodi.sourceforge.net/DTD/sodipodi-0.dtd"
   xmlns:inkscape="http://www.inkscape.org/namespaces/inkscape"
   width="536.17767"
   height="280.46317"
   id="svg4913"
   version="1.1"
   inkscape:version="0.48.2 r9819"
   sodipodi:docname="bctg-logo-final.svg"
   inkscape:export-filename="/Users/russellleggett/Documents/meetup/bctg-logo-final.png"
   inkscape:export-xdpi="64.17955"
   inkscape:export-ydpi="64.17955">
  <defs
     id="defs4915">
    <radialGradient
       inkscape:collect="always"
       xlink:href="#linearGradient3836"
       id="radialGradient4487"
       gradientUnits="userSpaceOnUse"
       gradientTransform="matrix(1,0,0,1.6329904,-469.98283,-532.51264)"
       cx="425.44098"
       cy="320.23364"
       fx="425.44098"
       fy="320.23364"
       r="15.00052" />
    <linearGradient
       inkscape:collect="always"
       id="linearGradient3836">
      <stop
         style="stop-color:#ff8f79;stop-opacity:1"
         offset="0"
         id="stop3838" />
      <stop
         style="stop-color:#c11f00;stop-opacity:1"
         offset="1"
         id="stop3840" />
    </linearGradient>
  </defs>
  <sodipodi:namedview
     id="base"
     pagecolor="#ffffff"
     bordercolor="#666666"
     borderopacity="1.0"
     inkscape:pageopacity="0.0"
     inkscape:pageshadow="2"
     inkscape:zoom="2.2363126"
     inkscape:cx="285.10604"
     inkscape:cy="149.43274"
     inkscape:document-units="px"
     inkscape:current-layer="layer1"
     showgrid="false"
     fit-margin-top="0"
     fit-margin-left="0"
     fit-margin-right="0"
     fit-margin-bottom="0"
     inkscape:window-width="1440"
     inkscape:window-height="852"
     inkscape:window-x="1550"
     inkscape:window-y="132"
     inkscape:window-maximized="0" />
  <metadata
     id="metadata4918">
    <rdf:RDF>
      <cc:Work
         rdf:about="">
        <dc:format>image/svg+xml</dc:format>
        <dc:type
           rdf:resource="http://purl.org/dc/dcmitype/StillImage" />
        <dc:title />
      </cc:Work>
    </rdf:RDF>
  </metadata>
  <g
     inkscape:groupmode="layer"
     id="layer2"
     inkscape:label="binary"
     style="display:none">
    <flowRoot
       xml:space="preserve"
       id="flowRoot3165"
       style="font-size:24px;font-style:normal;font-variant:normal;font-weight:normal;font-stretch:normal;text-align:start;line-height:125%;letter-spacing:0px;word-spacing:0px;writing-mode:lr-tb;text-anchor:start;fill:#a3d6e5;fill-opacity:1;stroke:none;font-family:OCR A Std;-inkscape-font-specification:OCR A Std"
       transform="matrix(1.1840534,0,0,1.1044622,-4.18868,1.60801)"><flowRegion
         id="flowRegion3167"><rect
           id="rect3169"
           width="530.70178"
           height="227.30244"
           x="3.9530859"
           y="2.7588766"
           style="font-size:24px;font-style:normal;font-variant:normal;font-weight:normal;font-stretch:normal;text-align:start;line-height:125%;writing-mode:lr-tb;text-anchor:start;fill:#a3d6e5;fill-opacity:1;font-family:OCR A Std;-inkscape-font-specification:OCR A Std" /></flowRegion><flowPara
         id="flowPara3171">01000010 01100101 01110010 01101011 01110011 01101000 01101001 01110010 01100101 00100000 01000011 01101111 01110101 01101110 01110100 01111001 00100000 01010100 01100101 01100011 01101000 01101110 01101111 01101100 01101111 01100111 01111001 00100000 01000111 01110010 01101111 01110101 01110000</flowPara></flowRoot>  </g>
  <g
     inkscape:label="Layer 1"
     inkscape:groupmode="layer"
     id="layer1"
     transform="translate(-106.91116,-392.1306)">
    <flowRoot
       xml:space="preserve"
       id="flowRoot4327"
       style="font-size:12px;font-style:normal;font-variant:normal;font-weight:normal;font-stretch:normal;text-align:start;line-height:125%;letter-spacing:0px;word-spacing:0px;writing-mode:lr-tb;text-anchor:start;fill:#000000;fill-opacity:1;stroke:none;font-family:OCR A Std;-inkscape-font-specification:OCR A Std"
       transform="matrix(1.8512395,0,0,1.8512395,19.024966,-455.46264)"><flowRegion
         id="flowRegion4329"><rect
           id="rect4331"
           width="673.45587"
           height="159.8475"
           x="49.788567"
           y="589.8526"
           style="font-size:12px;font-style:normal;font-variant:normal;font-weight:normal;font-stretch:normal;text-align:start;line-height:125%;writing-mode:lr-tb;text-anchor:start;font-family:OCR A Std;-inkscape-font-specification:OCR A Std" /></flowRegion><flowPara
         id="flowPara4333">Berkshire County Technology Group</flowPara></flowRoot>    <g
       transform="translate(454.46522,426.49045)"
       id="g4335">
      <path
         style="fill:none;stroke:#6e6e6e;stroke-width:2;stroke-linecap:butt;stroke-linejoin:miter;stroke-miterlimit:4;stroke-opacity:1;stroke-dasharray:none"
         d="m -62.972364,61.482401 c 0,0 8.48321,-10.5015 9.6951,-19.76754 1.21188,-9.26603 0.90891,-30.57791 0.90891,-33.3577204 0,-2.77981 0,-6.17736 0,-6.17736 l 13.02778,-0.9266 c 0,0 0.17352,1.86134 0.23128,6.229 0.58188,6.7224804 -0.10557,20.7614104 2.6191,33.9514804 1.34311,6.50197 4.6473,12.97051 9.3803,18.02893 z"
         id="path4337"
         inkscape:connector-curvature="0"
         sodipodi:nodetypes="csscccscc" />
      <path
         style="fill:url(#radialGradient4487);fill-opacity:1;stroke:none"
         d="m -46.313334,-34.353289 c -7.72326,0.19727 -13.874,5.36748 -14.11208,11.70105 0.268878,12.124154 0.497418,24.9279596 0.80933,37.2838 l 29.05992,-0.74211 c -0.429421,-12.2277979 -0.721241,-24.821573 -1.07291,-37.2778 -0.55657,-6.31389 -6.96051,-11.16294 -14.68427,-10.96569 z"
         id="path4339"
         inkscape:connector-curvature="0"
         sodipodi:nodetypes="ccccccc" />
      <path
         style="fill:#ffffff;fill-opacity:0.68000034;stroke:none"
         d="m -45.633564,-31.265209 c 0,0 4.74956,-1.14645 8.35268,2.94801 3.60312,4.09445 3.181553,5.208748 3.181553,5.208748 l -3.181553,1.014822 c -2.44343,-5.497479 -5.494569,-7.405934 -8.35268,-9.17158 z"
         id="path4341"
         inkscape:connector-curvature="0"
         sodipodi:nodetypes="csccc" />
    </g>
    <g
       id="g4654"
       transform="translate(944.68893,-375.5797)">
      <path
         sodipodi:nodetypes="czzzcc"
         style="fill:#00713d;fill-opacity:1;stroke:none"
         d="m -837.77777,998.67352 c 33.61834,-39.57393 76.55738,-95.60202 121.52324,-96.26368 44.96586,-0.66167 55.50039,9.58637 89.48339,7.16524 33.983,-2.42112 73.01894,-68.53576 131.00855,-69.35601 57.98961,-0.82025 144.72133,80.51172 193.70611,160.07323 z"
         id="path4345"
         inkscape:connector-curvature="0" />
      <path
         sodipodi:type="arc"
         style="fill:#000000;fill-opacity:1;stroke:#9ec898;stroke-width:3.4606986;stroke-miterlimit:4;stroke-opacity:1;stroke-dasharray:none"
         id="path4347"
         sodipodi:cx="-619.40326"
         sodipodi:cy="183.54092"
         sodipodi:rx="6.4425306"
         sodipodi:ry="6.4425306"
         d="m -612.96073,183.54092 c 0,3.55812 -2.88442,6.44253 -6.44253,6.44253 -3.55811,0 -6.44253,-2.88441 -6.44253,-6.44253 0,-3.55811 2.88442,-6.44253 6.44253,-6.44253 3.55811,0 6.44253,2.88442 6.44253,6.44253 z"
         transform="matrix(0.72239748,0,0,0.72239748,-353.62112,852.31001)" />
      <path
         transform="matrix(0.72239748,0,0,0.72239748,-339.07783,834.60508)"
         d="m -612.96073,183.54092 c 0,3.55812 -2.88442,6.44253 -6.44253,6.44253 -3.55811,0 -6.44253,-2.88441 -6.44253,-6.44253 0,-3.55811 2.88442,-6.44253 6.44253,-6.44253 3.55811,0 6.44253,2.88442 6.44253,6.44253 z"
         sodipodi:ry="6.4425306"
         sodipodi:rx="6.4425306"
         sodipodi:cy="183.54092"
         sodipodi:cx="-619.40326"
         id="path4349"
         style="fill:#000000;fill-opacity:1;stroke:#9ec898;stroke-width:3.4606986;stroke-miterlimit:4;stroke-opacity:1;stroke-dasharray:none"
         sodipodi:type="arc" />
      <path
         sodipodi:nodetypes="cccccc"
         inkscape:connector-curvature="0"
         id="path4351"
         d="m -782.29566,966.97925 12.45735,0 33.74995,-33.74995 36.45634,0 33.74995,33.74995 87.68936,-0.29319"
         style="fill:none;stroke:#9ec898;stroke-width:2.5;stroke-linecap:butt;stroke-linejoin:miter;stroke-miterlimit:4;stroke-opacity:1;stroke-dasharray:none" />
      <path
         style="fill:none;stroke:#9ec898;stroke-width:2.5;stroke-linecap:butt;stroke-linejoin:miter;stroke-miterlimit:4;stroke-opacity:1;stroke-dasharray:none"
         d="m -796.71147,984.61742 27.73804,0 35.04392,-35.04392 31.43521,0 35.04392,35.04392 71.41972,0"
         id="path4353"
         inkscape:connector-curvature="0"
         sodipodi:nodetypes="cccccc" />
      <path
         sodipodi:nodetypes="ccccc"
         inkscape:connector-curvature="0"
         id="path4355"
         d="m -769.92418,948.95178 30.03506,-30.03506 44.1682,0.10522 30.55156,30.55156 105.27635,-0.19689"
         style="fill:none;stroke:#9ec898;stroke-width:2.5;stroke-linecap:butt;stroke-linejoin:miter;stroke-miterlimit:4;stroke-opacity:1;stroke-dasharray:none" />
      <path
         sodipodi:type="arc"
         style="fill:#000000;fill-opacity:1;stroke:#9ec898;stroke-width:3.4606986;stroke-miterlimit:4;stroke-opacity:1;stroke-dasharray:none"
         id="path4357"
         sodipodi:cx="-619.40326"
         sodipodi:cy="183.54092"
         sodipodi:rx="6.4425306"
         sodipodi:ry="6.4425306"
         d="m -612.96073,183.54092 c 0,3.55812 -2.88442,6.44253 -6.44253,6.44253 -3.55811,0 -6.44253,-2.88441 -6.44253,-6.44253 0,-3.55811 2.88442,-6.44253 6.44253,-6.44253 3.55811,0 6.44253,2.88442 6.44253,6.44253 z"
         transform="matrix(0.72239748,0,0,0.72239748,-323.2699,816.90026)" />
      <path
         style="fill:none;stroke:#9ec898;stroke-width:2.5;stroke-linecap:butt;stroke-linejoin:miter;stroke-miterlimit:4;stroke-opacity:1;stroke-dasharray:none"
         d="m -744.28723,984.61742 14.58313,-17.63817"
         id="path4359"
         inkscape:connector-curvature="0" />
      <path
         transform="matrix(0.72239748,0,0,0.72239748,-296.98432,852.31001)"
         d="m -612.96073,183.54092 c 0,3.55812 -2.88442,6.44253 -6.44253,6.44253 -3.55811,0 -6.44253,-2.88441 -6.44253,-6.44253 0,-3.55811 2.88442,-6.44253 6.44253,-6.44253 3.55811,0 6.44253,2.88442 6.44253,6.44253 z"
         sodipodi:ry="6.4425306"
         sodipodi:rx="6.4425306"
         sodipodi:cy="183.54092"
         sodipodi:cx="-619.40326"
         id="path4361"
         style="fill:#000000;fill-opacity:1;stroke:#9ec898;stroke-width:3.4606986;stroke-miterlimit:4;stroke-opacity:1;stroke-dasharray:none"
         sodipodi:type="arc" />
      <path
         sodipodi:type="arc"
         style="fill:#000000;fill-opacity:1;stroke:#9ec898;stroke-width:3.4606986;stroke-miterlimit:4;stroke-opacity:1;stroke-dasharray:none"
         id="path4363"
         sodipodi:cx="-619.40326"
         sodipodi:cy="183.54092"
         sodipodi:rx="6.4425306"
         sodipodi:ry="6.4425306"
         d="m -612.96073,183.54092 c 0,3.55812 -2.88442,6.44253 -6.44253,6.44253 -3.55811,0 -6.44253,-2.88441 -6.44253,-6.44253 0,-3.55811 2.88442,-6.44253 6.44253,-6.44253 3.55811,0 6.44253,2.88442 6.44253,6.44253 z"
         transform="matrix(0.72239748,0,0,0.72239748,-282.44103,834.60508)" />
      <path
         inkscape:connector-curvature="0"
         id="path4365"
         d="m -719.17184,984.61742 14.58313,-17.63817"
         style="fill:none;stroke:#9ec898;stroke-width:2.5;stroke-linecap:butt;stroke-linejoin:miter;stroke-miterlimit:4;stroke-opacity:1;stroke-dasharray:none" />
      <path
         sodipodi:type="arc"
         style="fill:#000000;fill-opacity:1;stroke:#9ec898;stroke-width:3.4606986;stroke-miterlimit:4;stroke-opacity:1;stroke-dasharray:none"
         id="path4367"
         sodipodi:cx="-619.40326"
         sodipodi:cy="183.54092"
         sodipodi:rx="6.4425306"
         sodipodi:ry="6.4425306"
         d="m -612.96073,183.54092 c 0,3.55812 -2.88442,6.44253 -6.44253,6.44253 -3.55811,0 -6.44253,-2.88441 -6.44253,-6.44253 0,-3.55811 2.88442,-6.44253 6.44253,-6.44253 3.55811,0 6.44253,2.88442 6.44253,6.44253 z"
         transform="matrix(0.72239748,0,0,0.72239748,-271.86893,852.31001)" />
      <path
         transform="matrix(0.72239748,0,0,0.72239748,-257.32564,834.60508)"
         d="m -612.96073,183.54092 c 0,3.55812 -2.88442,6.44253 -6.44253,6.44253 -3.55811,0 -6.44253,-2.88441 -6.44253,-6.44253 0,-3.55811 2.88442,-6.44253 6.44253,-6.44253 3.55811,0 6.44253,2.88442 6.44253,6.44253 z"
         sodipodi:ry="6.4425306"
         sodipodi:rx="6.4425306"
         sodipodi:cy="183.54092"
         sodipodi:cx="-619.40326"
         id="path4369"
         style="fill:#000000;fill-opacity:1;stroke:#9ec898;stroke-width:3.4606986;stroke-miterlimit:4;stroke-opacity:1;stroke-dasharray:none"
         sodipodi:type="arc" />
      <path
         transform="matrix(0.72239748,0,0,0.72239748,-243.31031,852.31001)"
         d="m -612.96073,183.54092 c 0,3.55812 -2.88442,6.44253 -6.44253,6.44253 -3.55811,0 -6.44253,-2.88441 -6.44253,-6.44253 0,-3.55811 2.88442,-6.44253 6.44253,-6.44253 3.55811,0 6.44253,2.88442 6.44253,6.44253 z"
         sodipodi:ry="6.4425306"
         sodipodi:rx="6.4425306"
         sodipodi:cy="183.54092"
         sodipodi:cx="-619.40326"
         id="path4371"
         style="fill:#000000;fill-opacity:1;stroke:#9ec898;stroke-width:3.4606986;stroke-miterlimit:4;stroke-opacity:1;stroke-dasharray:none"
         sodipodi:type="arc" />
      <path
         transform="matrix(0.72239748,0,0,0.72239748,-107.83695,816.78711)"
         d="m -612.96073,183.54092 c 0,3.55812 -2.88442,6.44253 -6.44253,6.44253 -3.55811,0 -6.44253,-2.88441 -6.44253,-6.44253 0,-3.55811 2.88442,-6.44253 6.44253,-6.44253 3.55811,0 6.44253,2.88442 6.44253,6.44253 z"
         sodipodi:ry="6.4425306"
         sodipodi:rx="6.4425306"
         sodipodi:cy="183.54092"
         sodipodi:cx="-619.40326"
         id="path4373"
         style="fill:#000000;fill-opacity:1;stroke:#9ec898;stroke-width:3.4606986;stroke-miterlimit:4;stroke-opacity:1;stroke-dasharray:none"
         sodipodi:type="arc" />
      <path
         sodipodi:type="arc"
         style="fill:#000000;fill-opacity:1;stroke:#9ec898;stroke-width:3.4606986;stroke-miterlimit:4;stroke-opacity:1;stroke-dasharray:none"
         id="path4375"
         sodipodi:cx="-619.40326"
         sodipodi:cy="183.54092"
         sodipodi:rx="6.4425306"
         sodipodi:ry="6.4425306"
         d="m -612.96073,183.54092 c 0,3.55812 -2.88442,6.44253 -6.44253,6.44253 -3.55811,0 -6.44253,-2.88441 -6.44253,-6.44253 0,-3.55811 2.88442,-6.44253 6.44253,-6.44253 3.55811,0 6.44253,2.88442 6.44253,6.44253 z"
         transform="matrix(0.72239748,0,0,0.72239748,-125.72227,834.09656)" />
      <path
         style="fill:none;stroke:#9ec898;stroke-width:2.5;stroke-linecap:butt;stroke-linejoin:miter;stroke-miterlimit:4;stroke-opacity:1;stroke-dasharray:none"
         d="m -585.04839,906.65106 29.46611,-23.99011"
         id="path4377"
         inkscape:connector-curvature="0"
         sodipodi:nodetypes="cc" />
      <path
         sodipodi:type="arc"
         style="fill:#000000;fill-opacity:1;stroke:#9ec898;stroke-width:3.4606986;stroke-miterlimit:4;stroke-opacity:1;stroke-dasharray:none"
         id="path4379"
         sodipodi:cx="-619.40326"
         sodipodi:cy="183.54092"
         sodipodi:rx="6.4425306"
         sodipodi:ry="6.4425306"
         d="m -612.96073,183.54092 c 0,3.55812 -2.88442,6.44253 -6.44253,6.44253 -3.55811,0 -6.44253,-2.88441 -6.44253,-6.44253 0,-3.55811 2.88442,-6.44253 6.44253,-6.44253 3.55811,0 6.44253,2.88442 6.44253,6.44253 z"
         transform="matrix(0.72239748,0,0,0.72239748,-107.83695,750.38737)" />
      <path
         sodipodi:type="arc"
         style="fill:#000000;fill-opacity:1;stroke:#9ec898;stroke-width:3.4606986;stroke-miterlimit:4;stroke-opacity:1;stroke-dasharray:none"
         id="path4381"
         sodipodi:cx="-619.40326"
         sodipodi:cy="183.54092"
         sodipodi:rx="6.4425306"
         sodipodi:ry="6.4425306"
         d="m -612.96073,183.54092 c 0,3.55812 -2.88442,6.44253 -6.44253,6.44253 -3.55811,0 -6.44253,-2.88441 -6.44253,-6.44253 0,-3.55811 2.88442,-6.44253 6.44253,-6.44253 3.55811,0 6.44253,2.88442 6.44253,6.44253 z"
         transform="matrix(0.72239748,0,0,0.72239748,-137.73543,773.86915)" />
      <path
         transform="matrix(0.00680069,-0.72236547,0.72236547,0.00680069,-663.35864,535.88988)"
         d="m -612.96073,183.54092 c 0,3.55812 -2.88442,6.44253 -6.44253,6.44253 -3.55811,0 -6.44253,-2.88441 -6.44253,-6.44253 0,-3.55811 2.88442,-6.44253 6.44253,-6.44253 3.55811,0 6.44253,2.88442 6.44253,6.44253 z"
         sodipodi:ry="6.4425306"
         sodipodi:rx="6.4425306"
         sodipodi:cy="183.54092"
         sodipodi:cx="-619.40326"
         id="path4383"
         style="fill:#000000;fill-opacity:1;stroke:#9ec898;stroke-width:3.4606986;stroke-miterlimit:4;stroke-opacity:1;stroke-dasharray:none"
         sodipodi:type="arc" />
      <path
         sodipodi:type="arc"
         style="fill:#000000;fill-opacity:1;stroke:#9ec898;stroke-width:3.4606986;stroke-miterlimit:4;stroke-opacity:1;stroke-dasharray:none"
         id="path4385"
         sodipodi:cx="-619.40326"
         sodipodi:cy="183.54092"
         sodipodi:rx="6.4425306"
         sodipodi:ry="6.4425306"
         d="m -612.96073,183.54092 c 0,3.55812 -2.88442,6.44253 -6.44253,6.44253 -3.55811,0 -6.44253,-2.88441 -6.44253,-6.44253 0,-3.55811 2.88442,-6.44253 6.44253,-6.44253 3.55811,0 6.44253,2.88442 6.44253,6.44253 z"
         transform="matrix(0.00680069,-0.72236547,0.72236547,0.00680069,-719.15789,535.88988)" />
      <path
         sodipodi:nodetypes="cc"
         inkscape:connector-curvature="0"
         id="path4387"
         d="m -517.77178,905.86877 0,-43.02574"
         style="fill:none;stroke:#9ec898;stroke-width:2.5;stroke-linecap:butt;stroke-linejoin:miter;stroke-miterlimit:4;stroke-opacity:1;stroke-dasharray:none" />
      <path
         transform="matrix(0.00680069,-0.72236547,0.72236547,0.00680069,-646.0465,413.24225)"
         d="m -612.96073,183.54092 c 0,3.55812 -2.88442,6.44253 -6.44253,6.44253 -3.55811,0 -6.44253,-2.88441 -6.44253,-6.44253 0,-3.55811 2.88442,-6.44253 6.44253,-6.44253 3.55811,0 6.44253,2.88442 6.44253,6.44253 z"
         sodipodi:ry="6.4425306"
         sodipodi:rx="6.4425306"
         sodipodi:cy="183.54092"
         sodipodi:cx="-619.40326"
         id="path4389"
         style="fill:#000000;fill-opacity:1;stroke:#9ec898;stroke-width:3.4606986;stroke-miterlimit:4;stroke-opacity:1;stroke-dasharray:none"
         sodipodi:type="arc" />
      <path
         transform="matrix(0.00680069,-0.72236547,0.72236547,0.00680069,-645.95566,458.07557)"
         d="m -612.96073,183.54092 c 0,3.55812 -2.88442,6.44253 -6.44253,6.44253 -3.55811,0 -6.44253,-2.88441 -6.44253,-6.44253 0,-3.55811 2.88442,-6.44253 6.44253,-6.44253 3.55811,0 6.44253,2.88442 6.44253,6.44253 z"
         sodipodi:ry="6.4425306"
         sodipodi:rx="6.4425306"
         sodipodi:cy="183.54092"
         sodipodi:cx="-619.40326"
         id="path4391"
         style="fill:#000000;fill-opacity:1;stroke:#9ec898;stroke-width:3.4606986;stroke-miterlimit:4;stroke-opacity:1;stroke-dasharray:none"
         sodipodi:type="arc" />
      <path
         style="fill:none;stroke:#9ec898;stroke-width:2.5;stroke-linecap:butt;stroke-linejoin:miter;stroke-miterlimit:4;stroke-opacity:1;stroke-dasharray:none"
         d="m -654.94294,930.11764 c 23.39383,3e-4 46.78766,0.002 70.18149,0.002 l 29.19351,-23.47092 -29.19351,23.47092"
         id="path4393"
         inkscape:connector-curvature="0"
         sodipodi:nodetypes="cccc" />
      <path
         transform="matrix(0.72239748,0,0,0.72239748,-107.83695,774.11213)"
         d="m -612.96073,183.54092 c 0,3.55812 -2.88442,6.44253 -6.44253,6.44253 -3.55811,0 -6.44253,-2.88441 -6.44253,-6.44253 0,-3.55811 2.88442,-6.44253 6.44253,-6.44253 3.55811,0 6.44253,2.88442 6.44253,6.44253 z"
         sodipodi:ry="6.4425306"
         sodipodi:rx="6.4425306"
         sodipodi:cy="183.54092"
         sodipodi:cx="-619.40326"
         id="path4395"
         style="fill:#000000;fill-opacity:1;stroke:#9ec898;stroke-width:3.4606986;stroke-miterlimit:4;stroke-opacity:1;stroke-dasharray:none"
         sodipodi:type="arc" />
      <path
         sodipodi:type="arc"
         style="fill:#000000;fill-opacity:1;stroke:#9ec898;stroke-width:3.4606986;stroke-miterlimit:4;stroke-opacity:1;stroke-dasharray:none"
         id="path4397"
         sodipodi:cx="-619.40326"
         sodipodi:cy="183.54092"
         sodipodi:rx="6.4425306"
         sodipodi:ry="6.4425306"
         d="m -612.96073,183.54092 c 0,3.55812 -2.88442,6.44253 -6.44253,6.44253 -3.55811,0 -6.44253,-2.88441 -6.44253,-6.44253 0,-3.55811 2.88442,-6.44253 6.44253,-6.44253 3.55811,0 6.44253,2.88442 6.44253,6.44253 z"
         transform="matrix(0.00680069,-0.72236547,0.72236547,0.00680069,-783.41792,481.46364)" />
      <path
         sodipodi:type="arc"
         style="fill:#000000;fill-opacity:1;stroke:#9ec898;stroke-width:3.4606986;stroke-miterlimit:4;stroke-opacity:1;stroke-dasharray:none"
         id="path4399"
         sodipodi:cx="-619.40326"
         sodipodi:cy="183.54092"
         sodipodi:rx="6.4425306"
         sodipodi:ry="6.4425306"
         d="m -612.96073,183.54092 c 0,3.55812 -2.88442,6.44253 -6.44253,6.44253 -3.55811,0 -6.44253,-2.88441 -6.44253,-6.44253 0,-3.55811 2.88442,-6.44253 6.44253,-6.44253 3.55811,0 6.44253,2.88442 6.44253,6.44253 z"
         transform="matrix(0.00680069,-0.72236547,0.72236547,0.00680069,-631.35864,535.88988)" />
      <path
         style="fill:none;stroke:#9ec898;stroke-width:2.5;stroke-linecap:butt;stroke-linejoin:miter;stroke-miterlimit:4;stroke-opacity:1;stroke-dasharray:none"
         d="m -530.21789,984.61742 21.89734,0"
         id="path4401"
         inkscape:connector-curvature="0"
         sodipodi:nodetypes="cc" />
      <g
         transform="translate(-277.34919,668.64872)"
         id="g4403">
        <path
           transform="matrix(0.72239748,0,0,0.72239748,272.5123,165.42351)"
           d="m -612.96073,183.54092 c 0,3.55812 -2.88442,6.44253 -6.44253,6.44253 -3.55811,0 -6.44253,-2.88441 -6.44253,-6.44253 0,-3.55811 2.88442,-6.44253 6.44253,-6.44253 3.55811,0 6.44253,2.88442 6.44253,6.44253 z"
           sodipodi:ry="6.4425306"
           sodipodi:rx="6.4425306"
           sodipodi:cy="183.54092"
           sodipodi:cx="-619.40326"
           id="path4405"
           style="fill:#000000;fill-opacity:1;stroke:#9ec898;stroke-width:3.4606986;stroke-miterlimit:4;stroke-opacity:1;stroke-dasharray:none"
           sodipodi:type="arc" />
        <path
           transform="matrix(0.00680069,-0.72236547,0.72236547,0.00680069,-231.82063,-150.71453)"
           d="m -612.96073,183.54092 c 0,3.55812 -2.88442,6.44253 -6.44253,6.44253 -3.55811,0 -6.44253,-2.88441 -6.44253,-6.44253 0,-3.55811 2.88442,-6.44253 6.44253,-6.44253 3.55811,0 6.44253,2.88442 6.44253,6.44253 z"
           sodipodi:ry="6.4425306"
           sodipodi:rx="6.4425306"
           sodipodi:cy="183.54092"
           sodipodi:cx="-619.40326"
           id="path4407"
           style="fill:#000000;fill-opacity:1;stroke:#9ec898;stroke-width:3.4606986;stroke-miterlimit:4;stroke-opacity:1;stroke-dasharray:none"
           sodipodi:type="arc" />
        <path
           sodipodi:nodetypes="cc"
           inkscape:connector-curvature="0"
           id="path4409"
           d="m -170.51136,298.03734 62.06916,-0.0243"
           style="fill:#9ec898;fill-opacity:1;stroke:#9ec898;stroke-width:2.5;stroke-linecap:butt;stroke-linejoin:miter;stroke-miterlimit:4;stroke-opacity:1;stroke-dasharray:none" />
      </g>
      <path
         transform="matrix(0.00680069,-0.72236547,0.72236547,0.00680069,-482.34823,535.88988)"
         d="m -612.96073,183.54092 c 0,3.55812 -2.88442,6.44253 -6.44253,6.44253 -3.55811,0 -6.44253,-2.88441 -6.44253,-6.44253 0,-3.55811 2.88442,-6.44253 6.44253,-6.44253 3.55811,0 6.44253,2.88442 6.44253,6.44253 z"
         sodipodi:ry="6.4425306"
         sodipodi:rx="6.4425306"
         sodipodi:cy="183.54092"
         sodipodi:cx="-619.40326"
         id="path4411"
         style="fill:#000000;fill-opacity:1;stroke:#9ec898;stroke-width:3.4606986;stroke-miterlimit:4;stroke-opacity:1;stroke-dasharray:none"
         sodipodi:type="arc" />
      <path
         sodipodi:type="arc"
         style="fill:#000000;fill-opacity:1;stroke:#9ec898;stroke-width:3.4606986;stroke-miterlimit:4;stroke-opacity:1;stroke-dasharray:none"
         id="path4413"
         sodipodi:cx="-619.40326"
         sodipodi:cy="183.54092"
         sodipodi:rx="6.4425306"
         sodipodi:ry="6.4425306"
         d="m -612.96073,183.54092 c 0,3.55812 -2.88442,6.44253 -6.44253,6.44253 -3.55811,0 -6.44253,-2.88441 -6.44253,-6.44253 0,-3.55811 2.88442,-6.44253 6.44253,-6.44253 3.55811,0 6.44253,2.88442 6.44253,6.44253 z"
         transform="matrix(0.00680069,-0.72236547,0.72236547,0.00680069,-608.24445,535.88988)" />
      <path
         style="fill:none;stroke:#9ec898;stroke-width:2.5;stroke-linecap:butt;stroke-linejoin:miter;stroke-miterlimit:4;stroke-opacity:1;stroke-dasharray:none"
         d="m -479.81507,979.87433 0,-13.18827 17.30945,-17.30945 90.9161,0 17.30945,17.30945 0,13.59723"
         id="path4415"
         inkscape:connector-curvature="0"
         sodipodi:nodetypes="cccccc" />
      <path
         transform="matrix(0.00680069,-0.72236547,0.72236547,0.00680069,-581.19569,535.88988)"
         d="m -612.96073,183.54092 c 0,3.55812 -2.88442,6.44253 -6.44253,6.44253 -3.55811,0 -6.44253,-2.88441 -6.44253,-6.44253 0,-3.55811 2.88442,-6.44253 6.44253,-6.44253 3.55811,0 6.44253,2.88442 6.44253,6.44253 z"
         sodipodi:ry="6.4425306"
         sodipodi:rx="6.4425306"
         sodipodi:cy="183.54092"
         sodipodi:cx="-619.40326"
         id="path4417"
         style="fill:#000000;fill-opacity:1;stroke:#9ec898;stroke-width:3.4606986;stroke-miterlimit:4;stroke-opacity:1;stroke-dasharray:none"
         sodipodi:type="arc" />
      <path
         sodipodi:type="arc"
         style="fill:#000000;fill-opacity:1;stroke:#9ec898;stroke-width:3.4606986;stroke-miterlimit:4;stroke-opacity:1;stroke-dasharray:none"
         id="path4419"
         sodipodi:cx="-619.40326"
         sodipodi:cy="183.54092"
         sodipodi:rx="6.4425306"
         sodipodi:ry="6.4425306"
         d="m -612.96073,183.54092 c 0,3.55812 -2.88442,6.44253 -6.44253,6.44253 -3.55811,0 -6.44253,-2.88441 -6.44253,-6.44253 0,-3.55811 2.88442,-6.44253 6.44253,-6.44253 3.55811,0 6.44253,2.88442 6.44253,6.44253 z"
         transform="matrix(0.00680069,-0.72236547,0.72236547,0.00680069,-509.55302,535.88988)" />
      <path
         transform="matrix(0.00680069,-0.72236547,0.72236547,0.00680069,-557.31481,535.88988)"
         d="m -612.96073,183.54092 c 0,3.55812 -2.88442,6.44253 -6.44253,6.44253 -3.55811,0 -6.44253,-2.88441 -6.44253,-6.44253 0,-3.55811 2.88442,-6.44253 6.44253,-6.44253 3.55811,0 6.44253,2.88442 6.44253,6.44253 z"
         sodipodi:ry="6.4425306"
         sodipodi:rx="6.4425306"
         sodipodi:cy="183.54092"
         sodipodi:cx="-619.40326"
         id="path4421"
         style="fill:#000000;fill-opacity:1;stroke:#9ec898;stroke-width:3.4606986;stroke-miterlimit:4;stroke-opacity:1;stroke-dasharray:none"
         sodipodi:type="arc" />
      <path
         sodipodi:type="arc"
         style="fill:#000000;fill-opacity:1;stroke:#9ec898;stroke-width:3.4606986;stroke-miterlimit:4;stroke-opacity:1;stroke-dasharray:none"
         id="path4423"
         sodipodi:cx="-619.40326"
         sodipodi:cy="183.54092"
         sodipodi:rx="6.4425306"
         sodipodi:ry="6.4425306"
         d="m -612.96073,183.54092 c 0,3.55812 -2.88442,6.44253 -6.44253,6.44253 -3.55811,0 -6.44253,-2.88441 -6.44253,-6.44253 0,-3.55811 2.88442,-6.44253 6.44253,-6.44253 3.55811,0 6.44253,2.88442 6.44253,6.44253 z"
         transform="matrix(0.00680069,-0.72236547,0.72236547,0.00680069,-533.43391,535.88988)" />
      <path
         style="fill:none;stroke:#9ec898;stroke-width:2.5;stroke-linecap:butt;stroke-linejoin:miter;stroke-miterlimit:4;stroke-opacity:1;stroke-dasharray:none"
         d="m -452.80063,988.73965 0,11.09273"
         id="path4425"
         inkscape:connector-curvature="0"
         sodipodi:nodetypes="cc" />
      <path
         sodipodi:nodetypes="cc"
         inkscape:connector-curvature="0"
         id="path4427"
         d="m -428.80924,988.73965 0,11.09273"
         style="fill:none;stroke:#9ec898;stroke-width:2.5;stroke-linecap:butt;stroke-linejoin:miter;stroke-miterlimit:4;stroke-opacity:1;stroke-dasharray:none" />
      <path
         style="fill:none;stroke:#9ec898;stroke-width:2.5;stroke-linecap:butt;stroke-linejoin:miter;stroke-miterlimit:4;stroke-opacity:1;stroke-dasharray:none"
         d="m -405.06518,988.73965 -0.16489,11.25762"
         id="path4429"
         inkscape:connector-curvature="0"
         sodipodi:nodetypes="cc" />
      <path
         sodipodi:nodetypes="cc"
         inkscape:connector-curvature="0"
         id="path4431"
         d="m -381.15623,988.73965 0,11.25762"
         style="fill:none;stroke:#9ec898;stroke-width:2.5;stroke-linecap:butt;stroke-linejoin:miter;stroke-miterlimit:4;stroke-opacity:1;stroke-dasharray:none" />
      <path
         sodipodi:nodetypes="cc"
         inkscape:connector-curvature="0"
         id="path4433"
         d="m -690.90078,988.83587 0,10.21367"
         style="fill:none;stroke:#9ec898;stroke-width:2.5;stroke-linecap:butt;stroke-linejoin:miter;stroke-miterlimit:4;stroke-opacity:1;stroke-dasharray:none" />
      <path
         style="fill:none;stroke:#9ec898;stroke-width:2.5;stroke-linecap:butt;stroke-linejoin:miter;stroke-miterlimit:4;stroke-opacity:1;stroke-dasharray:none"
         d="m -503.0274,966.68606 36.56642,-36.56642"
         id="path4435"
         inkscape:connector-curvature="0" />
      <path
         transform="matrix(0.00680069,-0.72236547,0.72236547,0.00680069,-595.53396,481.3921)"
         d="m -612.96073,183.54092 c 0,3.55812 -2.88442,6.44253 -6.44253,6.44253 -3.55811,0 -6.44253,-2.88441 -6.44253,-6.44253 0,-3.55811 2.88442,-6.44253 6.44253,-6.44253 3.55811,0 6.44253,2.88442 6.44253,6.44253 z"
         sodipodi:ry="6.4425306"
         sodipodi:rx="6.4425306"
         sodipodi:cy="183.54092"
         sodipodi:cx="-619.40326"
         id="path4437"
         style="fill:#000000;fill-opacity:1;stroke:#9ec898;stroke-width:3.4606986;stroke-miterlimit:4;stroke-opacity:1;stroke-dasharray:none"
         sodipodi:type="arc" />
      <path
         sodipodi:type="arc"
         style="fill:#000000;fill-opacity:1;stroke:#9ec898;stroke-width:3.4606986;stroke-miterlimit:4;stroke-opacity:1;stroke-dasharray:none"
         id="path4439"
         sodipodi:cx="-619.40326"
         sodipodi:cy="183.54092"
         sodipodi:rx="6.4425306"
         sodipodi:ry="6.4425306"
         d="m -612.96073,183.54092 c 0,3.55812 -2.88442,6.44253 -6.44253,6.44253 -3.55811,0 -6.44253,-2.88441 -6.44253,-6.44253 0,-3.55811 2.88442,-6.44253 6.44253,-6.44253 3.55811,0 6.44253,2.88442 6.44253,6.44253 z"
         transform="matrix(0.00680069,-0.72236547,0.72236547,0.00680069,-631.28547,518.04614)" />
      <path
         sodipodi:type="arc"
         style="fill:#000000;fill-opacity:1;stroke:#9ec898;stroke-width:3.4606986;stroke-miterlimit:4;stroke-opacity:1;stroke-dasharray:none"
         id="path4441"
         sodipodi:cx="-619.40326"
         sodipodi:cy="183.54092"
         sodipodi:rx="6.4425306"
         sodipodi:ry="6.4425306"
         d="m -612.96073,183.54092 c 0,3.55812 -2.88442,6.44253 -6.44253,6.44253 -3.55811,0 -6.44253,-2.88441 -6.44253,-6.44253 0,-3.55811 2.88442,-6.44253 6.44253,-6.44253 3.55811,0 6.44253,2.88442 6.44253,6.44253 z"
         transform="matrix(0.00680069,-0.72236547,0.72236547,0.00680069,-664.82031,481.3921)" />
      <path
         style="fill:none;stroke:#9ec898;stroke-width:2.5;stroke-linecap:butt;stroke-linejoin:miter;stroke-miterlimit:4;stroke-opacity:1;stroke-dasharray:none"
         d="m -531.81795,930.11964 40.21941,0 11.60907,-11.60907 73.62492,-0.0331"
         id="path4443"
         inkscape:connector-curvature="0"
         sodipodi:nodetypes="cccc" />
      <path
         sodipodi:type="arc"
         style="fill:#000000;fill-opacity:1;stroke:#9ec898;stroke-width:3.4606986;stroke-miterlimit:4;stroke-opacity:1;stroke-dasharray:none"
         id="path4445"
         sodipodi:cx="-619.40326"
         sodipodi:cy="183.54092"
         sodipodi:rx="6.4425306"
         sodipodi:ry="6.4425306"
         d="m -612.96073,183.54092 c 0,3.55812 -2.88442,6.44253 -6.44253,6.44253 -3.55811,0 -6.44253,-2.88441 -6.44253,-6.44253 0,-3.55811 2.88442,-6.44253 6.44253,-6.44253 3.55811,0 6.44253,2.88442 6.44253,6.44253 z"
         transform="matrix(0.00680069,-0.72236547,0.72236547,0.00680069,-530.52713,469.74992)" />
      <path
         style="fill:none;stroke:#9ec898;stroke-width:2.5;stroke-linecap:butt;stroke-linejoin:miter;stroke-miterlimit:4;stroke-opacity:1;stroke-dasharray:none"
         d="m -562.12546,984.61742 35.24081,-35.24081"
         id="path4447"
         inkscape:connector-curvature="0" />
      <path
         transform="matrix(0.00680069,-0.72236547,0.72236547,0.00680069,-655.38764,500.73669)"
         d="m -612.96073,183.54092 c 0,3.55812 -2.88442,6.44253 -6.44253,6.44253 -3.55811,0 -6.44253,-2.88441 -6.44253,-6.44253 0,-3.55811 2.88442,-6.44253 6.44253,-6.44253 3.55811,0 6.44253,2.88442 6.44253,6.44253 z"
         sodipodi:ry="6.4425306"
         sodipodi:rx="6.4425306"
         sodipodi:cy="183.54092"
         sodipodi:cx="-619.40326"
         id="path4449"
         style="fill:#000000;fill-opacity:1;stroke:#9ec898;stroke-width:3.4606986;stroke-miterlimit:4;stroke-opacity:1;stroke-dasharray:none"
         sodipodi:type="arc" />
      <path
         sodipodi:type="arc"
         style="fill:#000000;fill-opacity:1;stroke:#9ec898;stroke-width:3.4606986;stroke-miterlimit:4;stroke-opacity:1;stroke-dasharray:none"
         id="path4451"
         sodipodi:cx="-619.40326"
         sodipodi:cy="183.54092"
         sodipodi:rx="6.4425306"
         sodipodi:ry="6.4425306"
         d="m -612.96073,183.54092 c 0,3.55812 -2.88442,6.44253 -6.44253,6.44253 -3.55811,0 -6.44253,-2.88441 -6.44253,-6.44253 0,-3.55811 2.88442,-6.44253 6.44253,-6.44253 3.55811,0 6.44253,2.88442 6.44253,6.44253 z"
         transform="matrix(0.00680069,-0.72236547,0.72236547,0.00680069,-690.93846,535.88988)" />
      <path
         sodipodi:type="arc"
         style="fill:#000000;fill-opacity:1;stroke:#9ec898;stroke-width:3.4606986;stroke-miterlimit:4;stroke-opacity:1;stroke-dasharray:none"
         id="path4453"
         sodipodi:cx="-619.40326"
         sodipodi:cy="183.54092"
         sodipodi:rx="6.4425306"
         sodipodi:ry="6.4425306"
         d="m -612.96073,183.54092 c 0,3.55812 -2.88442,6.44253 -6.44253,6.44253 -3.55811,0 -6.44253,-2.88441 -6.44253,-6.44253 0,-3.55811 2.88442,-6.44253 6.44253,-6.44253 3.55811,0 6.44253,2.88442 6.44253,6.44253 z"
         transform="matrix(0.00680069,-0.72236547,0.72236547,0.00680069,-566.33219,481.3921)" />
      <path
         transform="matrix(0.00680069,-0.72236547,0.72236547,0.00680069,-518.92225,481.3921)"
         d="m -612.96073,183.54092 c 0,3.55812 -2.88442,6.44253 -6.44253,6.44253 -3.55811,0 -6.44253,-2.88441 -6.44253,-6.44253 0,-3.55811 2.88442,-6.44253 6.44253,-6.44253 3.55811,0 6.44253,2.88442 6.44253,6.44253 z"
         sodipodi:ry="6.4425306"
         sodipodi:rx="6.4425306"
         sodipodi:cy="183.54092"
         sodipodi:cx="-619.40326"
         id="path4455"
         style="fill:#000000;fill-opacity:1;stroke:#9ec898;stroke-width:3.4606986;stroke-miterlimit:4;stroke-opacity:1;stroke-dasharray:none"
         sodipodi:type="arc" />
      <path
         style="fill:none;stroke:#9ec898;stroke-width:2.5;stroke-linecap:butt;stroke-linejoin:miter;stroke-miterlimit:4;stroke-opacity:1;stroke-dasharray:none"
         d="m -433.14924,930.11964 37.96231,0"
         id="path4457"
         inkscape:connector-curvature="0" />
      <path
         sodipodi:type="arc"
         style="fill:#000000;fill-opacity:1;stroke:#9ec898;stroke-width:3.4606986;stroke-miterlimit:4;stroke-opacity:1;stroke-dasharray:none"
         id="path4459"
         sodipodi:cx="-619.40326"
         sodipodi:cy="183.54092"
         sodipodi:rx="6.4425306"
         sodipodi:ry="6.4425306"
         d="m -612.96073,183.54092 c 0,3.55812 -2.88442,6.44253 -6.44253,6.44253 -3.55811,0 -6.44253,-2.88441 -6.44253,-6.44253 0,-3.55811 2.88442,-6.44253 6.44253,-6.44253 3.55811,0 6.44253,2.88442 6.44253,6.44253 z"
         transform="matrix(0.00680069,-0.72236547,0.72236547,0.00680069,-626.89748,458.07556)" />
      <path
         transform="matrix(0.00680069,-0.72236547,0.72236547,0.00680069,-626.89748,441.29645)"
         d="m -612.96073,183.54092 c 0,3.55812 -2.88442,6.44253 -6.44253,6.44253 -3.55811,0 -6.44253,-2.88441 -6.44253,-6.44253 0,-3.55811 2.88442,-6.44253 6.44253,-6.44253 3.55811,0 6.44253,2.88442 6.44253,6.44253 z"
         sodipodi:ry="6.4425306"
         sodipodi:rx="6.4425306"
         sodipodi:cy="183.54092"
         sodipodi:cx="-619.40326"
         id="path4461"
         style="fill:#000000;fill-opacity:1;stroke:#9ec898;stroke-width:3.4606986;stroke-miterlimit:4;stroke-opacity:1;stroke-dasharray:none"
         sodipodi:type="arc" />
      <path
         transform="matrix(0.00680069,-0.72236547,0.72236547,0.00680069,-609.66864,458.07557)"
         d="m -612.96073,183.54092 c 0,3.55812 -2.88442,6.44253 -6.44253,6.44253 -3.55811,0 -6.44253,-2.88441 -6.44253,-6.44253 0,-3.55811 2.88442,-6.44253 6.44253,-6.44253 3.55811,0 6.44253,2.88442 6.44253,6.44253 z"
         sodipodi:ry="6.4425306"
         sodipodi:rx="6.4425306"
         sodipodi:cy="183.54092"
         sodipodi:cx="-619.40326"
         id="path4463"
         style="fill:#000000;fill-opacity:1;stroke:#9ec898;stroke-width:3.4606986;stroke-miterlimit:4;stroke-opacity:1;stroke-dasharray:none"
         sodipodi:type="arc" />
      <path
         sodipodi:type="arc"
         style="fill:#000000;fill-opacity:1;stroke:#9ec898;stroke-width:3.4606986;stroke-miterlimit:4;stroke-opacity:1;stroke-dasharray:none"
         id="path4465"
         sodipodi:cx="-619.40326"
         sodipodi:cy="183.54092"
         sodipodi:rx="6.4425306"
         sodipodi:ry="6.4425306"
         d="m -612.96073,183.54092 c 0,3.55812 -2.88442,6.44253 -6.44253,6.44253 -3.55811,0 -6.44253,-2.88441 -6.44253,-6.44253 0,-3.55811 2.88442,-6.44253 6.44253,-6.44253 3.55811,0 6.44253,2.88442 6.44253,6.44253 z"
         transform="matrix(0.00680069,-0.72236547,0.72236547,0.00680069,-609.58101,424.33181)" />
      <path
         style="fill:none;stroke:#9ec898;stroke-width:2.5;stroke-linecap:butt;stroke-linejoin:miter;stroke-miterlimit:4;stroke-opacity:1;stroke-dasharray:none"
         d="m -481.25357,878.15805 0,23.72852"
         id="path4467"
         inkscape:connector-curvature="0"
         sodipodi:nodetypes="cc" />
      <path
         style="fill:none;stroke:#9ec898;stroke-width:2.5;stroke-linecap:butt;stroke-linejoin:miter;stroke-miterlimit:4;stroke-opacity:1;stroke-dasharray:none"
         d="m -442.17329,894.61884 19.99992,0"
         id="path4469"
         inkscape:connector-curvature="0" />
      <path
         sodipodi:type="arc"
         style="fill:#000000;fill-opacity:1;stroke:#9ec898;stroke-width:3.4606986;stroke-miterlimit:4;stroke-opacity:1;stroke-dasharray:none"
         id="path4471"
         sodipodi:cx="-619.40326"
         sodipodi:cy="183.54092"
         sodipodi:rx="6.4425306"
         sodipodi:ry="6.4425306"
         d="m -612.96073,183.54092 c 0,3.55812 -2.88442,6.44253 -6.44253,6.44253 -3.55811,0 -6.44253,-2.88441 -6.44253,-6.44253 0,-3.55811 2.88442,-6.44253 6.44253,-6.44253 3.55811,0 6.44253,2.88442 6.44253,6.44253 z"
         transform="matrix(0.00680069,-0.72236547,0.72236547,0.00680069,-574.95593,445.97892)" />
      <path
         transform="matrix(0.00680069,-0.72236547,0.72236547,0.00680069,-560.8106,458.07557)"
         d="m -612.96073,183.54092 c 0,3.55812 -2.88442,6.44253 -6.44253,6.44253 -3.55811,0 -6.44253,-2.88441 -6.44253,-6.44253 0,-3.55811 2.88442,-6.44253 6.44253,-6.44253 3.55811,0 6.44253,2.88442 6.44253,6.44253 z"
         sodipodi:ry="6.4425306"
         sodipodi:rx="6.4425306"
         sodipodi:cy="183.54092"
         sodipodi:cx="-619.40326"
         id="path4473"
         style="fill:#000000;fill-opacity:1;stroke:#9ec898;stroke-width:3.4606986;stroke-miterlimit:4;stroke-opacity:1;stroke-dasharray:none"
         sodipodi:type="arc" />
      <path
         style="fill:none;stroke:#9ec898;stroke-width:2.5;stroke-linecap:butt;stroke-linejoin:miter;stroke-miterlimit:4;stroke-opacity:1;stroke-dasharray:none"
         d="m -498.87353,873.05935 11.1779,-11.1779 12.83125,0 11.1779,11.1779 -0.0189,23.00786 10.73591,10.7359 15.20757,0"
         id="path4475"
         inkscape:connector-curvature="0"
         sodipodi:nodetypes="ccccccc" />
      <path
         sodipodi:type="arc"
         style="fill:#000000;fill-opacity:1;stroke:#9ec898;stroke-width:3.4606986;stroke-miterlimit:4;stroke-opacity:1;stroke-dasharray:none"
         id="path4477"
         sodipodi:cx="-619.40326"
         sodipodi:cy="183.54092"
         sodipodi:rx="6.4425306"
         sodipodi:ry="6.4425306"
         d="m -612.96073,183.54092 c 0,3.55812 -2.88442,6.44253 -6.44253,6.44253 -3.55811,0 -6.44253,-2.88441 -6.44253,-6.44253 0,-3.55811 2.88442,-6.44253 6.44253,-6.44253 3.55811,0 6.44253,2.88442 6.44253,6.44253 z"
         transform="matrix(0.00680069,-0.72236547,0.72236547,0.00680069,-626.89748,424.51734)" />
      <path
         transform="matrix(0.00680069,-0.72236547,0.72236547,0.00680069,-546.4106,445.97892)"
         d="m -612.96073,183.54092 c 0,3.55812 -2.88442,6.44253 -6.44253,6.44253 -3.55811,0 -6.44253,-2.88441 -6.44253,-6.44253 0,-3.55811 2.88442,-6.44253 6.44253,-6.44253 3.55811,0 6.44253,2.88442 6.44253,6.44253 z"
         sodipodi:ry="6.4425306"
         sodipodi:rx="6.4425306"
         sodipodi:cy="183.54092"
         sodipodi:cx="-619.40326"
         id="path4479"
         style="fill:#000000;fill-opacity:1;stroke:#9ec898;stroke-width:3.4606986;stroke-miterlimit:4;stroke-opacity:1;stroke-dasharray:none"
         sodipodi:type="arc" />
      <path
         transform="matrix(0.00680069,-0.72236547,0.72236547,0.00680069,-561.039,435.52668)"
         d="m -612.96073,183.54092 c 0,3.55812 -2.88442,6.44253 -6.44253,6.44253 -3.55811,0 -6.44253,-2.88441 -6.44253,-6.44253 0,-3.55811 2.88442,-6.44253 6.44253,-6.44253 3.55811,0 6.44253,2.88442 6.44253,6.44253 z"
         sodipodi:ry="6.4425306"
         sodipodi:rx="6.4425306"
         sodipodi:cy="183.54092"
         sodipodi:cx="-619.40326"
         id="path4481"
         style="fill:#000000;fill-opacity:1;stroke:#9ec898;stroke-width:3.4606986;stroke-miterlimit:4;stroke-opacity:1;stroke-dasharray:none"
         sodipodi:type="arc" />
      <path
         style="fill:none;stroke:#9ec898;stroke-width:2.5;stroke-linecap:butt;stroke-linejoin:miter;stroke-miterlimit:4;stroke-opacity:1;stroke-dasharray:none"
         d="m -447.34227,869.64053 11.12299,11.12298"
         id="path4485"
         inkscape:connector-curvature="0" />
      <path
         sodipodi:type="arc"
         style="fill:#000000;fill-opacity:1;stroke:#9ec898;stroke-width:3.4606986;stroke-miterlimit:4;stroke-opacity:1;stroke-dasharray:none"
         id="path4483"
         sodipodi:cx="-619.40326"
         sodipodi:cy="183.54092"
         sodipodi:rx="6.4425306"
         sodipodi:ry="6.4425306"
         d="m -612.96073,183.54092 c 0,3.55812 -2.88442,6.44253 -6.44253,6.44253 -3.55811,0 -6.44253,-2.88441 -6.44253,-6.44253 0,-3.55811 2.88442,-6.44253 6.44253,-6.44253 3.55811,0 6.44253,2.88442 6.44253,6.44253 z"
         transform="matrix(0.00680069,-0.72236547,0.72236547,0.00680069,-575.32134,421.18027)" />
      <path
         transform="matrix(0.00680069,-0.72236547,0.72236547,0.00680069,-631.28547,500.83738)"
         d="m -612.96073,183.54092 c 0,3.55812 -2.88442,6.44253 -6.44253,6.44253 -3.55811,0 -6.44253,-2.88441 -6.44253,-6.44253 0,-3.55811 2.88442,-6.44253 6.44253,-6.44253 3.55811,0 6.44253,2.88442 6.44253,6.44253 z"
         sodipodi:ry="6.4425306"
         sodipodi:rx="6.4425306"
         sodipodi:cy="183.54092"
         sodipodi:cx="-619.40326"
         id="path4642"
         style="fill:#000000;fill-opacity:1;stroke:#9ec898;stroke-width:3.4606986;stroke-miterlimit:4;stroke-opacity:1;stroke-dasharray:none"
         sodipodi:type="arc" />
      <path
         sodipodi:type="arc"
         style="fill:#000000;fill-opacity:1;stroke:#9ec898;stroke-width:3.4606986;stroke-miterlimit:4;stroke-opacity:1;stroke-dasharray:none"
         id="path4648"
         sodipodi:cx="-619.40326"
         sodipodi:cy="183.54092"
         sodipodi:rx="6.4425306"
         sodipodi:ry="6.4425306"
         d="m -612.96073,183.54092 c 0,3.55812 -2.88442,6.44253 -6.44253,6.44253 -3.55811,0 -6.44253,-2.88441 -6.44253,-6.44253 0,-3.55811 2.88442,-6.44253 6.44253,-6.44253 3.55811,0 6.44253,2.88442 6.44253,6.44253 z"
         transform="matrix(0.00680069,-0.72236547,0.72236547,0.00680069,-648.27445,517.98643)" />
      <path
         inkscape:connector-curvature="0"
         id="path4652"
         d="m -516.46065,963.15355 9.49449,-9.49449"
         style="fill:none;stroke:#9ec898;stroke-width:2.5;stroke-linecap:butt;stroke-linejoin:miter;stroke-miterlimit:4;stroke-opacity:1;stroke-dasharray:none" />
    </g>
  </g>
</svg>
